<svg version="1.1" id="Layer_1" xmlns="http://www.w3.org/2000/svg" xmlns:xlink="http://www.w3.org/1999/xlink" x="0px" y="0px"
	 width="100%" viewBox="0 0 625 621" enable-background="new 0 0 625 621" xml:space="preserve">
<path fill="#1B6DC1" opacity="1.000000" stroke="none" 
	d="
M626.000000,234.000000 
	C626.000000,363.666595 626.000000,492.833221 626.000000,621.999878 
	C417.666809,621.999878 209.333618,621.999878 1.000317,621.999939 
	C1.000211,415.000214 1.000211,208.000458 1.000106,1.000511 
	C209.333023,1.000341 417.666046,1.000341 625.999512,1.000170 
	C626.000000,78.500000 626.000000,156.000000 626.000000,234.000000 
M623.001587,366.500000 
	C623.001587,315.434906 623.001587,264.369812 623.001587,213.210373 
	C586.106384,217.857559 561.584595,202.516632 549.221619,179.957428 
	C532.627686,149.677719 539.566833,122.407860 564.982361,99.118790 
	C563.887512,99.118790 563.366577,99.009071 562.910278,99.134537 
	C540.915710,105.182312 521.800049,115.999306 506.041534,132.723724 
	C476.945984,163.602570 479.183960,206.943542 501.911316,234.470184 
	C504.117920,237.142731 506.384735,238.356293 509.929901,238.252060 
	C518.705322,237.993988 527.493469,238.167328 536.430542,238.167328 
	C536.430542,277.805298 536.430542,316.818481 536.430542,355.737122 
	C501.763550,355.737122 467.538910,355.737122 432.731628,355.737122 
	C432.731628,239.937469 432.731628,124.562843 432.731628,9.416805 
	C401.574554,9.416805 371.005829,9.416805 339.893799,9.416805 
	C339.893799,22.580023 339.893799,35.332802 339.893799,48.127113 
	C333.421478,48.127113 327.503632,48.127113 320.881470,48.127113 
	C320.881470,34.911694 320.881470,22.042463 320.881470,9.325342 
	C303.575134,9.325342 286.981598,9.325342 269.898438,9.325342 
	C269.898438,22.402029 269.898438,35.160210 269.898438,48.040878 
	C263.371216,48.040878 257.345764,48.040878 250.784058,48.040878 
	C250.784058,34.859570 250.784058,22.116926 250.784058,9.262939 
	C232.317307,9.262939 214.396744,9.262939 195.935852,9.262939 
	C195.935852,22.260994 195.935852,35.008762 195.935852,48.081963 
	C189.373657,48.081963 183.355576,48.081963 176.771851,48.081963 
	C176.771851,34.943092 176.771851,22.197445 176.771851,9.389218 
	C159.484512,9.389218 142.767532,9.389218 126.086029,9.389218 
	C125.949326,10.267626 125.807800,10.759317 125.805923,11.251545 
	C125.776604,18.917242 125.755669,26.583004 125.751984,34.248756 
	C125.744881,49.003201 125.752510,48.879845 110.944313,48.567574 
	C107.271973,48.490131 106.523041,47.059120 106.573891,43.794090 
	C106.726990,33.963959 106.639999,24.129854 106.612770,14.297393 
	C106.608116,12.616956 106.436760,10.936982 106.342415,9.256794 
	C105.873016,9.067118 105.403625,8.877440 104.934227,8.687764 
	C104.052559,9.866668 103.227943,11.093650 102.280937,12.217494 
	C72.647469,47.384605 42.964134,82.509933 13.462671,117.787369 
	C11.869135,119.692902 11.099945,122.860031 11.097089,125.441147 
	C10.981449,229.932541 10.998370,334.424072 10.998379,438.915588 
	C10.998379,440.698944 10.998378,442.482300 10.998378,444.476318 
	C23.282709,444.476318 35.000458,444.476318 47.280346,444.476318 
	C47.280346,425.871735 47.280346,407.620697 47.280346,389.263367 
	C53.893166,389.263367 59.933212,389.263367 66.552109,389.263367 
	C66.552109,407.936157 66.552109,426.189178 66.552109,444.390533 
	C80.690735,444.390533 94.235558,444.390533 108.300987,444.390533 
	C108.300987,425.696686 108.300987,407.444305 108.300987,389.146790 
	C114.760109,389.146790 120.683846,389.146790 127.229889,389.146790 
	C127.229889,461.168152 127.229889,532.882690 127.229889,604.571838 
	C205.058121,604.571838 282.258698,604.571838 360.039185,604.571838 
	C360.039185,581.072266 360.039185,557.997009 360.039185,534.993042 
	C377.998993,534.993042 395.372955,534.993042 413.292480,534.993042 
	C413.292480,558.539490 413.292480,581.610474 413.292480,604.687622 
	C483.425751,604.687622 553.003357,604.687622 623.001587,604.687622 
	C623.001587,525.416260 623.001587,446.458130 623.001587,366.500000 
z"/>
<path fill="#000101" opacity="1.000000" stroke="none" 
	d="
M623.001587,367.000000 
	C623.001587,446.458130 623.001587,525.416260 623.001587,604.687622 
	C553.003357,604.687622 483.425751,604.687622 413.292480,604.687622 
	C413.292480,581.610474 413.292480,558.539490 413.292480,534.993042 
	C395.372955,534.993042 377.998993,534.993042 360.039185,534.993042 
	C360.039185,557.997009 360.039185,581.072266 360.039185,604.571838 
	C282.258698,604.571838 205.058121,604.571838 127.229889,604.571838 
	C127.229889,532.882690 127.229889,461.168152 127.229889,389.146790 
	C120.683846,389.146790 114.760109,389.146790 108.300987,389.146790 
	C108.300987,407.444305 108.300987,425.696686 108.300987,444.390533 
	C94.235558,444.390533 80.690735,444.390533 66.552109,444.390533 
	C66.552109,426.189178 66.552109,407.936157 66.552109,389.263367 
	C59.933212,389.263367 53.893166,389.263367 47.280346,389.263367 
	C47.280346,407.620697 47.280346,425.871735 47.280346,444.476318 
	C35.000458,444.476318 23.282709,444.476318 10.998378,444.476318 
	C10.998378,442.482300 10.998379,440.698944 10.998379,438.915588 
	C10.998370,334.424072 10.981449,229.932541 11.097089,125.441147 
	C11.099945,122.860031 11.869135,119.692902 13.462671,117.787369 
	C42.964134,82.509933 72.647469,47.384605 102.280937,12.217494 
	C103.227943,11.093650 104.052559,9.866668 104.934227,8.687764 
	C105.403625,8.877440 105.873016,9.067118 106.342415,9.256794 
	C106.436760,10.936982 106.608116,12.616956 106.612770,14.297393 
	C106.639999,24.129854 106.726990,33.963959 106.573891,43.794090 
	C106.523041,47.059120 107.271973,48.490131 110.944313,48.567574 
	C125.752510,48.879845 125.744881,49.003201 125.751984,34.248756 
	C125.755669,26.583004 125.776604,18.917242 125.805923,11.251545 
	C125.807800,10.759317 125.949326,10.267626 126.086029,9.389218 
	C142.767532,9.389218 159.484512,9.389218 176.771851,9.389218 
	C176.771851,22.197445 176.771851,34.943092 176.771851,48.081963 
	C183.355576,48.081963 189.373657,48.081963 195.935852,48.081963 
	C195.935852,35.008762 195.935852,22.260994 195.935852,9.262939 
	C214.396744,9.262939 232.317307,9.262939 250.784058,9.262939 
	C250.784058,22.116926 250.784058,34.859570 250.784058,48.040878 
	C257.345764,48.040878 263.371216,48.040878 269.898438,48.040878 
	C269.898438,35.160210 269.898438,22.402029 269.898438,9.325342 
	C286.981598,9.325342 303.575134,9.325342 320.881470,9.325342 
	C320.881470,22.042463 320.881470,34.911694 320.881470,48.127113 
	C327.503632,48.127113 333.421478,48.127113 339.893799,48.127113 
	C339.893799,35.332802 339.893799,22.580023 339.893799,9.416805 
	C371.005829,9.416805 401.574554,9.416805 432.731628,9.416805 
	C432.731628,124.562843 432.731628,239.937469 432.731628,355.737122 
	C467.538910,355.737122 501.763550,355.737122 536.430542,355.737122 
	C536.430542,316.818481 536.430542,277.805298 536.430542,238.167328 
	C527.493469,238.167328 518.705322,237.993988 509.929901,238.252060 
	C506.384735,238.356293 504.117920,237.142731 501.911316,234.470184 
	C479.183960,206.943542 476.945984,163.602570 506.041534,132.723724 
	C521.800049,115.999306 540.915710,105.182312 562.910278,99.134537 
	C563.366577,99.009071 563.887512,99.118790 564.982361,99.118790 
	C539.566833,122.407860 532.627686,149.677719 549.221619,179.957428 
	C561.584595,202.516632 586.106384,217.857559 623.001587,213.210373 
	C623.001587,264.369812 623.001587,315.434906 623.001587,367.000000 
M271.545929,582.681702 
	C288.474609,582.764160 305.403259,582.855286 322.332031,582.889587 
	C322.869537,582.890686 323.408234,582.307861 324.109039,581.072205 
	C324.139740,560.278931 324.314087,539.484192 324.095551,518.693542 
	C324.043854,513.773682 325.253052,512.023254 330.456299,512.133362 
	C346.086334,512.464355 361.727936,512.278076 377.364929,512.245605 
	C400.483826,512.197632 423.602692,512.108459 446.881439,512.957214 
	C446.977295,535.953796 447.073151,558.950317 447.639374,582.638367 
	C463.444672,582.765015 479.254333,582.720398 495.052612,583.122864 
	C499.787231,583.243469 500.942810,581.616089 500.897003,577.158569 
	C500.698517,557.842041 500.809235,538.522400 500.815674,519.203857 
	C500.817993,512.275574 500.828522,512.262939 507.504883,512.255371 
	C517.497192,512.244019 527.498901,512.508362 537.477966,512.144958 
	C542.498779,511.962128 544.017761,513.434998 543.965942,518.562683 
	C543.752502,539.705627 543.998840,560.853210 544.573364,582.682983 
	C561.502747,582.764526 578.432129,582.854736 595.361572,582.888000 
	C595.898804,582.889038 596.437256,582.304077 597.149780,581.069580 
	C597.182556,580.072327 597.243896,579.075012 597.244019,578.077759 
	C597.250793,509.539246 597.254578,441.000702 597.243042,372.462189 
	C597.242798,370.972046 597.062439,369.481873 597.024963,367.056488 
	C597.016052,350.785461 597.023621,334.514435 596.994629,318.243439 
	C596.947632,291.847900 596.876709,265.452423 596.334778,238.376633 
	C584.746765,238.376633 573.158752,238.376633 561.001282,238.376633 
	C561.001282,240.790237 561.001282,242.913239 561.001282,245.036240 
	C561.001160,289.535583 561.002686,334.034912 560.999084,378.534241 
	C560.998535,385.191284 560.987488,385.216339 554.631531,385.216766 
	C470.466125,385.222382 386.300720,385.222870 302.135315,385.204926 
	C300.206390,385.204498 298.277527,384.974335 296.458588,384.858368 
	C295.572083,377.327362 295.573120,377.329895 301.769531,374.831177 
	C318.863922,367.937927 334.729706,358.975830 349.034760,347.261383 
	C385.020203,317.792938 406.593140,281.061035 407.263733,233.478073 
	C407.701721,202.397995 399.744598,173.908447 381.870911,148.388855 
	C377.589630,142.276199 372.661865,136.616348 368.053589,130.776321 
	C383.163940,107.151405 381.697205,87.778404 364.019257,74.989113 
	C356.660187,69.665115 348.402161,67.386024 339.554779,68.208412 
	C325.664154,69.499573 316.069275,77.465584 309.557617,89.557594 
	C307.657684,88.924438 306.066467,88.472946 304.533936,87.871826 
	C272.130280,75.162048 238.555283,72.440109 204.395645,77.176186 
	C177.495880,80.905716 152.648376,90.649292 130.163651,106.037369 
	C127.619209,107.778732 125.958717,107.999153 123.209885,106.128616 
	C104.553902,93.433510 84.894135,92.539169 65.195251,103.093155 
	C39.044811,117.103645 34.979183,149.453613 56.718143,168.234756 
	C60.958603,171.898254 65.930214,174.715454 69.618645,177.268295 
	C66.953636,191.423325 63.513172,205.135834 61.936230,219.059418 
	C59.004852,244.942017 63.478046,269.942902 75.230255,293.198639 
	C94.489105,331.308777 125.641945,356.699158 164.194885,373.503448 
	C169.535324,375.831207 171.093903,378.394958 171.074829,384.020020 
	C170.863327,446.351685 170.938797,508.684326 170.950287,571.016724 
	C170.950958,574.680176 171.068253,578.343567 171.620789,582.685913 
	C188.400101,582.777100 205.179382,582.880554 221.958817,582.917297 
	C222.664383,582.918823 223.371292,582.300720 224.305496,581.060364 
	C224.356903,559.897766 224.498489,538.734680 224.382324,517.572998 
	C224.359543,513.424255 225.701828,512.088562 229.831406,512.174316 
	C240.992050,512.406311 252.160690,512.248657 263.326172,512.253296 
	C270.763977,512.256348 270.751190,512.262329 270.779663,519.520142 
	C270.861359,540.345337 270.954407,561.170593 271.545929,582.681702 
z"/>
<path fill="#03508A" opacity="1.000000" stroke="none" 
	d="
M596.966125,367.991730 
	C597.062439,369.481873 597.242798,370.972046 597.243042,372.462189 
	C597.254578,441.000702 597.250793,509.539246 597.244019,578.077759 
	C597.243896,579.075012 597.182556,580.072327 596.595459,581.533020 
	C578.719482,581.997314 561.397827,581.998169 544.076172,581.999084 
	C543.998840,560.853210 543.752502,539.705627 543.965942,518.562683 
	C544.017761,513.434998 542.498779,511.962128 537.477966,512.144958 
	C527.498901,512.508362 517.497192,512.244019 507.504883,512.255371 
	C500.828522,512.262939 500.817993,512.275574 500.815674,519.203857 
	C500.809235,538.522400 500.698517,557.842041 500.897003,577.158569 
	C500.942810,581.616089 499.787231,583.243469 495.052612,583.122864 
	C479.254333,582.720398 463.444672,582.765015 447.569397,581.918762 
	C447.654388,580.215759 447.942963,579.232544 447.944489,578.248901 
	C447.976715,557.758606 448.004242,537.268188 447.927979,516.778137 
	C447.922089,515.196228 447.141846,513.617249 446.721558,512.036865 
	C423.602692,512.108459 400.483826,512.197632 377.364929,512.245605 
	C361.727936,512.278076 346.086334,512.464355 330.456299,512.133362 
	C325.253052,512.023254 324.043854,513.773682 324.095551,518.693542 
	C324.314087,539.484192 324.139740,560.278931 323.562683,581.535706 
	C305.691864,581.998047 288.367432,581.996948 271.042999,581.995789 
	C270.954407,561.170593 270.861359,540.345337 270.779663,519.520142 
	C270.751190,512.262329 270.763977,512.256348 263.326172,512.253296 
	C252.160690,512.248657 240.992050,512.406311 229.831406,512.174316 
	C225.701828,512.088562 224.359543,513.424255 224.382324,517.572998 
	C224.498489,538.734680 224.356903,559.897766 223.717194,581.522278 
	C205.796356,581.991760 188.463821,581.999390 171.131271,582.007019 
	C171.068253,578.343567 170.950958,574.680176 170.950287,571.016724 
	C170.938797,508.684326 170.863327,446.351685 171.074829,384.020020 
	C171.093903,378.394958 169.535324,375.831207 164.194885,373.503448 
	C125.641945,356.699158 94.489105,331.308777 75.230255,293.198639 
	C63.478046,269.942902 59.004852,244.942017 61.936230,219.059418 
	C63.513172,205.135834 66.953636,191.423325 69.618645,177.268295 
	C65.930214,174.715454 60.958603,171.898254 56.718143,168.234756 
	C34.979183,149.453613 39.044811,117.103645 65.195251,103.093155 
	C84.894135,92.539169 104.553902,93.433510 123.209885,106.128616 
	C125.958717,107.999153 127.619209,107.778732 130.163651,106.037369 
	C152.648376,90.649292 177.495880,80.905716 204.395645,77.176186 
	C238.555283,72.440109 272.130280,75.162048 304.533936,87.871826 
	C306.066467,88.472946 307.657684,88.924438 309.557617,89.557594 
	C316.069275,77.465584 325.664154,69.499573 339.554779,68.208412 
	C348.402161,67.386024 356.660187,69.665115 364.019257,74.989113 
	C381.697205,87.778404 383.163940,107.151405 368.053589,130.776321 
	C372.661865,136.616348 377.589630,142.276199 381.870911,148.388855 
	C399.744598,173.908447 407.701721,202.397995 407.263733,233.478073 
	C406.593140,281.061035 385.020203,317.792938 349.034760,347.261383 
	C334.729706,358.975830 318.863922,367.937927 301.769531,374.831177 
	C295.573120,377.329895 295.572083,377.327362 296.458588,384.858368 
	C298.277527,384.974335 300.206390,385.204498 302.135315,385.204926 
	C386.300720,385.222870 470.466125,385.222382 554.631531,385.216766 
	C560.987488,385.216339 560.998535,385.191284 560.999084,378.534241 
	C561.002686,334.034912 561.001160,289.535583 561.001282,245.036240 
	C561.001282,242.913239 561.001282,240.790237 561.001282,238.376633 
	C573.158752,238.376633 584.746765,238.376633 596.422729,239.094940 
	C596.342163,241.462006 596.027649,243.110626 596.026428,244.759491 
	C595.998352,283.889252 595.990173,323.019073 596.044434,362.148773 
	C596.047119,364.096863 596.645264,366.044098 596.966125,367.991730 
M322.104523,316.837799 
	C323.764893,316.884644 325.425537,316.979553 327.085602,316.970490 
	C337.337646,316.914459 347.519745,309.164398 350.908325,298.864075 
	C354.315491,288.507202 350.374512,277.546783 340.694946,270.459198 
	C332.793152,264.673340 320.295135,264.641357 312.096405,270.375702 
	C303.126007,276.649780 299.575104,285.482727 301.387970,295.967926 
	C303.298523,307.018188 310.603638,313.627472 322.104523,316.837799 
M288.369446,223.737823 
	C294.372345,214.416901 292.721924,204.745407 283.994995,198.299561 
	C279.069000,194.661148 273.458527,193.633865 267.474060,194.084183 
	C258.888489,194.730255 250.925079,201.126373 249.229233,208.759811 
	C247.265472,217.599274 250.644547,224.852386 258.998383,229.728943 
	C268.237793,235.122437 279.532806,232.995636 288.369446,223.737823 
M357.592773,202.118301 
	C355.923218,200.280167 354.501160,198.104935 352.539490,196.664597 
	C345.541992,191.526688 337.808533,191.367844 330.427795,195.265793 
	C324.007935,198.656311 320.233185,204.294937 321.112793,212.048264 
	C322.002167,219.887482 327.452881,223.950607 334.141846,226.282089 
	C342.529144,229.205551 349.917542,226.703461 355.858795,220.323685 
	C360.722321,215.101181 361.144196,209.101746 357.592773,202.118301 
z"/>
<path fill="#175EA7" opacity="1.000000" stroke="none" 
	d="
M596.995544,367.524109 
	C596.645264,366.044098 596.047119,364.096863 596.044434,362.148773 
	C595.990173,323.019073 595.998352,283.889252 596.026428,244.759491 
	C596.027649,243.110626 596.342163,241.462006 596.663330,239.435089 
	C596.876709,265.452423 596.947632,291.847900 596.994629,318.243439 
	C597.023621,334.514435 597.016052,350.785461 596.995544,367.524109 
z"/>
<path fill="#1964B0" opacity="1.000000" stroke="none" 
	d="
M446.801483,512.497070 
	C447.141846,513.617249 447.922089,515.196228 447.927979,516.778137 
	C448.004242,537.268188 447.976715,557.758606 447.944489,578.248901 
	C447.942963,579.232544 447.654388,580.215759 447.334229,581.572998 
	C447.073151,558.950317 446.977295,535.953796 446.801483,512.497070 
z"/>
<path fill="#145291" opacity="1.000000" stroke="none" 
	d="
M171.376038,582.346436 
	C188.463821,581.999390 205.796356,581.991760 223.603241,581.977783 
	C223.371292,582.300720 222.664383,582.918823 221.958817,582.917297 
	C205.179382,582.880554 188.400101,582.777100 171.376038,582.346436 
z"/>
<path fill="#145291" opacity="1.000000" stroke="none" 
	d="
M271.294464,582.338745 
	C288.367432,581.996948 305.691864,581.998047 323.481323,581.998230 
	C323.408234,582.307861 322.869537,582.890686 322.332031,582.889587 
	C305.403259,582.855286 288.474609,582.764160 271.294464,582.338745 
z"/>
<path fill="#145291" opacity="1.000000" stroke="none" 
	d="
M544.324768,582.341064 
	C561.397827,581.998169 578.719482,581.997314 596.508118,581.994385 
	C596.437256,582.304077 595.898804,582.889038 595.361572,582.888000 
	C578.432129,582.854736 561.502747,582.764526 544.324768,582.341064 
z"/>
<path fill="#000101" opacity="1.000000" stroke="none" 
	d="
M321.690308,316.731628 
	C310.603638,313.627472 303.298523,307.018188 301.387970,295.967926 
	C299.575104,285.482727 303.126007,276.649780 312.096405,270.375702 
	C320.295135,264.641357 332.793152,264.673340 340.694946,270.459198 
	C350.374512,277.546783 354.315491,288.507202 350.908325,298.864075 
	C347.519745,309.164398 337.337646,316.914459 327.085602,316.970490 
	C325.425537,316.979553 323.764893,316.884644 321.690308,316.731628 
z"/>
<path fill="#000101" opacity="1.000000" stroke="none" 
	d="
M288.127380,224.013733 
	C279.532806,232.995636 268.237793,235.122437 258.998383,229.728943 
	C250.644547,224.852386 247.265472,217.599274 249.229233,208.759811 
	C250.925079,201.126373 258.888489,194.730255 267.474060,194.084183 
	C273.458527,193.633865 279.069000,194.661148 283.994995,198.299561 
	C292.721924,204.745407 294.372345,214.416901 288.127380,224.013733 
z"/>
<path fill="#000101" opacity="1.000000" stroke="none" 
	d="
M357.768738,202.456268 
	C361.144196,209.101746 360.722321,215.101181 355.858795,220.323685 
	C349.917542,226.703461 342.529144,229.205551 334.141846,226.282089 
	C327.452881,223.950607 322.002167,219.887482 321.112793,212.048264 
	C320.233185,204.294937 324.007935,198.656311 330.427795,195.265793 
	C337.808533,191.367844 345.541992,191.526688 352.539490,196.664597 
	C354.501160,198.104935 355.923218,200.280167 357.768738,202.456268 
z"/>
</svg>