<svg version="1.1" id="Layer_1" xmlns="http://www.w3.org/2000/svg" xmlns:xlink="http://www.w3.org/1999/xlink" x="0px" y="0px"
	 width="100%" viewBox="0 0 617 626" enable-background="new 0 0 617 626" xml:space="preserve">
<path fill="#010100" opacity="1.000000" stroke="none" 
	d="
M1.335486,455.321533 
	C1.000000,345.979095 1.000000,236.958206 1.000000,127.468658 
	C2.976860,119.776848 8.387916,114.844933 12.979814,109.442131 
	C26.562328,93.461067 40.030594,77.384285 53.541988,61.343792 
	C64.801575,47.976601 76.174751,34.704483 87.255592,21.186981 
	C87.994080,20.286098 88.840759,19.461660 89.769173,18.758465 
	C93.465050,15.959133 96.562988,17.225641 97.035820,21.889811 
	C97.523521,26.700638 97.206879,31.548250 97.251579,36.379604 
	C97.291656,40.711884 97.087433,45.051109 97.350586,49.375134 
	C97.621063,53.819702 98.927711,54.715420 104.489853,54.721706 
	C110.116806,54.728065 111.462326,53.878880 111.635582,49.410645 
	C111.945496,41.418236 111.653351,33.414494 111.775970,25.416702 
	C111.903862,17.075119 113.073334,15.847963 121.380341,15.786452 
	C133.878006,15.693913 146.377533,15.638955 158.874390,15.817765 
	C165.618820,15.914268 167.034836,17.382465 167.190521,24.138006 
	C167.374802,32.134850 167.148560,40.136299 167.294876,48.133602 
	C167.396988,53.714802 168.481750,54.667229 174.227783,54.716755 
	C180.356476,54.769573 181.590958,53.761139 181.702423,48.146839 
	C181.864548,39.983231 181.596283,31.814293 181.830536,23.651876 
	C182.006042,17.536831 183.534256,15.926290 189.643997,15.843034 
	C204.306808,15.643227 218.973175,15.616252 233.635544,15.858852 
	C239.425140,15.954645 240.975815,17.604807 241.158524,23.438129 
	C241.414139,31.600033 241.146240,39.768970 241.288864,47.932957 
	C241.390320,53.739719 242.515076,54.725582 248.544662,54.719208 
	C254.579514,54.712830 255.614380,53.783543 255.713333,47.866665 
	C255.849854,39.702545 255.582932,31.533628 255.843658,23.371857 
	C256.030304,17.529047 257.546997,15.941276 263.400360,15.850845 
	C277.229584,15.637193 291.063049,15.605265 304.891663,15.869707 
	C310.382050,15.974698 311.950562,17.640711 312.144531,23.186569 
	C312.435822,31.514252 312.123322,39.850754 312.299652,48.180702 
	C312.418976,53.816288 313.612366,54.782166 319.792145,54.718491 
	C325.518829,54.659485 326.596008,53.705990 326.704498,48.091003 
	C326.862244,39.927299 326.591125,31.758293 326.834686,23.596109 
	C327.015869,17.523504 328.562408,15.886933 334.710907,15.844022 
	C361.873016,15.654453 389.036255,15.666936 416.198456,15.836306 
	C422.648651,15.876527 423.967010,17.401400 424.199585,23.953907 
	C424.300110,26.785311 424.252899,29.619324 424.252930,32.452206 
	C424.254456,139.271301 424.252411,246.090393 424.255920,352.909485 
	C424.256287,363.733551 424.266602,363.742279 435.011108,363.743988 
	C461.674225,363.748230 488.337311,363.761169 515.000427,363.736389 
	C523.318237,363.728668 523.730347,363.315430 523.736084,354.920959 
	C523.758057,322.925232 523.760986,290.929504 523.734253,258.933777 
	C523.727478,250.762955 523.212341,250.309067 514.822998,250.256195 
	C509.324127,250.221527 503.824646,250.214676 498.326233,250.205338 
	C494.486420,250.198807 491.746155,248.550400 489.334991,245.692459 
	C464.488342,216.241821 464.860107,172.824173 490.137756,143.895859 
	C505.387939,126.443207 523.753967,114.307945 545.759888,107.471252 
	C548.546997,106.605370 552.004578,104.845070 553.895142,108.205002 
	C555.490967,111.041046 552.476929,112.958786 550.588806,114.748535 
	C535.200684,129.335175 530.021667,147.385681 532.772522,167.974197 
	C536.254333,194.032684 560.324219,215.513809 585.190430,219.716400 
	C592.658569,220.978577 600.128662,220.673752 607.615662,220.692688 
	C612.474487,220.704971 613.783081,221.898209 614.137695,226.777145 
	C614.319031,229.271133 614.252136,231.774353 614.252136,234.273834 
	C614.254395,357.090790 614.254456,479.907715 614.252197,602.724670 
	C614.252136,605.224182 614.310242,607.726685 614.143555,610.221741 
	C613.798706,615.381958 612.286438,616.840759 607.000122,617.161804 
	C605.169922,617.272888 603.335327,617.251038 601.502258,617.251160 
	C538.510681,617.255066 475.519073,617.261780 412.527466,617.246399 
	C400.015411,617.243347 399.767090,616.971863 399.750824,604.221741 
	C399.729584,587.557312 399.783173,570.892822 399.726349,554.228516 
	C399.701721,547.017639 398.955261,546.299927 391.603882,546.270874 
	C380.272247,546.226074 368.939941,546.192566 357.608673,546.287781 
	C351.314484,546.340637 350.329590,547.297241 350.291962,553.565796 
	C350.190948,570.396484 350.268921,587.227844 350.250854,604.058899 
	C350.248352,606.391663 350.242157,608.723816 350.099670,611.054871 
	C349.870544,614.802429 347.985474,616.868652 344.166412,617.097046 
	C342.001648,617.226440 339.836792,617.249756 337.670685,617.250000 
	C267.013458,617.256104 196.356201,617.259399 125.698959,617.247864 
	C112.982155,617.245789 112.755676,617.023193 112.752724,604.413025 
	C112.737877,541.088135 112.747429,477.763275 112.745895,414.438385 
	C112.745850,412.438660 112.759712,410.438782 112.738197,408.439209 
	C112.658028,400.987305 108.370804,398.092194 101.341293,400.673157 
	C98.296112,401.791199 98.317047,404.358398 98.297302,406.865662 
	C98.198906,419.363647 98.278343,431.862091 98.250931,444.360352 
	C98.223053,457.068695 98.071396,457.229065 85.367912,457.247253 
	C77.369087,457.258698 69.369186,457.343933 61.371574,457.204742 
	C53.585537,457.069275 51.903572,455.458893 51.805683,447.790466 
	C51.637638,434.626740 51.799843,421.460938 51.730843,408.296326 
	C51.692596,400.999176 47.075169,397.993652 40.240017,400.707489 
	C37.256035,401.892212 37.321571,404.493591 37.300125,406.990173 
	C37.195614,419.154816 37.273323,431.320007 37.253113,443.484985 
	C37.230282,457.229767 37.231068,457.237793 23.710005,457.248932 
	C18.210911,457.253448 12.710710,457.332916 7.213075,457.187500 
	C5.260073,457.135834 3.191740,457.322418 1.335486,455.321533 
z"/>
<path fill="#F0D145" opacity="1.000000" stroke="none" 
	d="
M1.000000,455.468658 
	C10.787856,453.897949 20.610228,454.580597 30.409981,454.622101 
	C34.409248,454.639038 35.393089,453.443054 35.340614,449.574524 
	C35.128143,433.911407 35.352135,418.242584 35.175766,402.578583 
	C35.136539,399.094849 36.084244,397.807831 39.635216,398.104858 
	C43.110748,398.395569 46.650486,398.406647 50.123756,398.102844 
	C53.789154,397.782227 54.542210,399.319183 54.510445,402.667694 
	C54.361847,418.332245 54.590420,434.001312 54.345673,449.663452 
	C54.282150,453.728607 55.568783,454.684052 59.414593,454.595581 
	C70.075157,454.350403 80.750618,454.311981 91.408432,454.610992 
	C95.501892,454.725830 96.329170,453.322571 96.281494,449.539032 
	C96.084152,433.875519 96.303398,418.206879 96.119026,402.543060 
	C96.077431,399.009338 97.111870,397.753510 100.609673,398.131287 
	C105.365326,398.644897 111.540611,396.097900 114.551041,399.161469 
	C117.313362,401.972565 115.330818,408.061890 115.333984,412.699768 
	C115.378807,478.363556 115.415184,544.027527 115.252960,609.690918 
	C115.241898,614.167969 116.423325,615.113342 120.757942,615.104919 
	C194.754471,614.961121 268.751465,614.947083 342.747833,615.127502 
	C347.561554,615.139221 348.328827,613.614868 348.284058,609.319275 
	C348.073914,589.155701 348.287323,568.987793 348.103363,548.823669 
	C348.069366,545.096252 349.035339,544.020691 352.814423,544.077332 
	C367.643799,544.299255 382.480652,544.308533 397.309601,544.072205 
	C401.163818,544.010742 401.988464,545.201355 401.957184,548.857361 
	C401.781738,569.354919 401.960236,589.855591 401.789948,610.353271 
	C401.760284,613.927673 402.424133,615.109863 406.338593,615.101746 
	C473.335388,614.962463 540.332703,614.957031 607.329407,615.109009 
	C611.494690,615.118469 612.075073,613.740906 612.072632,610.082397 
	C611.987061,482.421295 611.982483,354.760132 612.089355,227.099075 
	C612.092712,223.126373 611.221497,222.417862 607.253174,222.798904 
	C578.427734,225.566620 555.096802,215.541168 539.077271,191.167664 
	C522.113342,165.357208 527.815186,130.773895 551.475586,110.723244 
	C552.322815,110.005272 553.528015,109.551353 553.793030,107.875969 
	C546.243225,109.101250 539.324585,111.863968 532.614990,114.985825 
	C507.620117,126.615456 487.194183,143.383057 477.723694,170.035889 
	C467.974487,197.473343 473.559875,222.792938 492.027069,245.303329 
	C493.629547,247.256607 495.450500,247.559631 497.712982,247.539001 
	C505.711975,247.465973 513.713928,247.610794 521.710693,247.460114 
	C524.641724,247.404892 525.801392,248.157700 525.792786,251.353607 
	C525.692993,288.351746 525.703430,325.350281 525.782654,362.348511 
	C525.788574,365.114319 525.094788,366.067627 522.179382,366.058868 
	C489.847748,365.961975 457.515625,365.971008 425.183868,366.048676 
	C422.629822,366.054810 421.435730,365.444641 421.792419,362.738647 
	C421.943573,361.592010 421.816254,360.408752 421.816254,359.242126 
	C421.816254,247.413635 421.778290,135.585068 421.942291,23.756815 
	C421.949585,18.784115 420.566376,17.843348 415.889069,17.883152 
	C388.392242,18.117151 360.891907,18.076004 333.394165,17.906504 
	C329.671936,17.883560 328.619843,18.774055 328.722931,22.549677 
	C329.004883,32.874855 328.717224,43.214436 328.882355,53.544678 
	C328.931122,56.596287 328.002228,57.711647 324.927246,57.538948 
	C321.106140,57.324345 317.248871,57.278374 313.435211,57.550987 
	C310.165863,57.784695 309.575195,56.383755 309.615051,53.486710 
	C309.757141,43.155785 309.546021,32.819351 309.741638,22.490177 
	C309.804352,19.177284 309.173889,17.848309 305.454498,17.906841 
	C291.125336,18.132343 276.789062,18.106640 262.458862,17.917545 
	C259.129333,17.873610 258.224884,18.845867 258.282715,22.098114 
	C258.469330,32.594334 258.244049,43.097736 258.417328,53.594414 
	C258.468048,56.667545 257.558136,57.737106 254.470840,57.544708 
	C250.652496,57.306755 246.797394,57.310966 242.978165,57.541519 
	C239.763168,57.735596 239.096069,56.341839 239.135880,53.433350 
	C239.277267,43.102402 239.061066,32.765766 239.265427,22.436928 
	C239.331100,19.118202 238.690582,17.853695 235.002380,17.905804 
	C219.506149,18.124733 204.003860,18.098492 188.506592,17.920099 
	C185.098373,17.880865 183.933426,18.658239 184.023834,22.266924 
	C184.278320,32.426777 183.969620,42.600258 184.190414,52.761688 
	C184.267166,56.293839 183.615173,58.033947 179.633759,57.542400 
	C174.914566,56.959770 168.550476,59.578117 165.842361,56.430828 
	C163.498260,53.706585 165.079529,47.549812 165.041168,42.909325 
	C164.983322,35.910107 164.898743,28.906628 165.087189,21.912010 
	C165.165070,19.021557 164.628845,17.867796 161.342087,17.912727 
	C146.845428,18.110905 132.342667,18.122904 117.846466,17.908253 
	C114.346481,17.856426 113.806961,19.120090 113.855675,22.177774 
	C114.020248,32.508038 113.761559,42.846210 114.003044,53.173447 
	C114.087639,56.791039 112.857841,57.872936 109.463921,57.520676 
	C104.728188,57.029148 98.383125,59.589905 95.660957,56.433422 
	C93.313614,53.711567 94.865570,47.560673 94.831375,42.924774 
	C94.770683,34.696259 94.814339,26.466972 94.814339,18.238008 
	C94.357353,18.047239 93.900360,17.856470 93.443375,17.665699 
	C62.829491,54.011868 32.215607,90.358032 1.300862,126.852097 
	C1.000000,86.174934 1.036796,45.349770 0.922260,4.525029 
	C0.914093,1.614055 1.420727,0.912252 4.473812,0.913685 
	C207.765915,1.009082 411.058075,1.010965 614.350159,0.905414 
	C617.719299,0.903664 618.059631,1.964894 618.058716,4.848724 
	C617.994202,210.973618 617.992432,417.098541 618.072571,623.223450 
	C618.073792,626.279480 617.468567,627.084106 614.278015,627.082642 
	C411.152557,626.990967 208.027023,626.986877 4.901590,627.105591 
	C1.279210,627.107727 0.911560,626.116760 0.918123,622.902954 
	C1.031785,567.247925 1.000000,511.592590 1.000000,455.468658 
z"/>
<path fill="#F0D045" opacity="1.000000" stroke="none" 
	d="
M212.790253,562.000122 
	C212.790161,571.166382 212.619217,579.837646 212.871872,588.496521 
	C212.976715,592.089661 211.768250,592.946350 208.343369,592.906372 
	C193.512756,592.733154 178.675629,592.658325 163.848450,592.942810 
	C159.636948,593.023621 159.035080,591.505615 159.040573,587.819763 
	C159.138351,522.322998 159.059586,456.825897 159.226517,391.329376 
	C159.237808,386.895203 157.761551,385.332275 153.794693,383.610901 
	C109.468628,364.375824 74.656082,334.985046 57.582676,288.511658 
	C45.822273,256.500153 46.484669,223.856506 57.866951,191.623734 
	C59.146381,188.000595 58.831291,186.426926 55.164886,184.518646 
	C36.388893,174.746094 27.336208,157.216858 32.163658,138.826675 
	C36.819016,121.092033 49.963387,111.408104 66.901337,107.174271 
	C82.967789,103.158264 98.375359,105.768349 111.886314,115.956970 
	C114.308006,117.783165 115.706657,117.298401 117.833504,115.844368 
	C155.653366,89.988358 197.730301,81.629448 242.796280,85.481934 
	C260.683533,87.011032 277.876801,91.333183 294.496429,97.974495 
	C297.488434,99.170120 298.623535,98.424179 300.177948,95.753716 
	C311.308655,76.631401 334.746124,71.409683 352.254150,83.954803 
	C369.676270,96.438370 372.501984,120.620934 358.155823,137.093750 
	C355.726807,139.882874 356.754486,141.043015 358.581451,143.056915 
	C384.550293,171.683075 396.627960,205.531784 395.863617,243.976501 
	C395.125671,281.093201 381.350922,312.943298 355.889679,339.790100 
	C336.581757,360.148651 314.090973,375.838348 287.475311,385.153198 
	C282.704529,386.822845 284.153351,390.288635 284.238190,393.264526 
	C284.334259,396.632751 287.323547,395.088928 288.924774,395.090546 
	C374.254028,395.177795 459.583435,395.133423 544.912537,395.269165 
	C549.167053,395.275940 550.044861,394.083405 550.031311,390.013733 
	C549.879456,344.349701 550.017578,298.684601 549.812622,253.020996 
	C549.791321,248.270187 551.229919,247.243469 555.613220,247.415710 
	C563.933289,247.742661 572.289978,247.805496 580.602600,247.394440 
	C585.226624,247.165787 585.982117,248.805618 585.980713,253.023041 
	C585.944458,364.346985 586.013123,475.671021 586.245300,586.994690 
	C586.255432,591.852722 585.055115,593.078552 580.242981,592.957336 
	C566.252563,592.604919 552.244141,592.662415 538.250122,592.934937 
	C533.997131,593.017700 532.591003,592.137695 532.655212,587.551636 
	C532.937622,567.389893 532.645691,547.220337 532.883484,527.057434 
	C532.933350,522.829468 531.735352,521.793579 527.638123,521.899414 
	C516.479431,522.187622 505.304810,522.159058 494.144257,521.909912 
	C490.313904,521.824463 489.086975,522.736572 489.131104,526.785706 
	C489.352600,547.115723 489.109467,567.450745 489.332947,587.780701 
	C489.379517,592.016541 488.108795,593.002502 484.030273,592.931213 
	C469.535400,592.677673 455.031494,592.705566 440.535339,592.920288 
	C436.856476,592.974731 435.744385,592.098694 435.782013,588.269714 
	C435.983521,567.772644 435.756042,547.271240 435.980347,526.774719 
	C436.024628,522.727844 434.800842,521.900330 430.987946,521.914307 
	C393.156891,522.053162 355.324768,522.075439 317.494110,521.889282 
	C313.318665,521.868774 312.707123,523.282715 312.734802,526.939087 
	C312.890137,547.436951 312.729187,567.937256 312.887054,588.435059 
	C312.914001,591.933105 311.946838,592.954956 308.427856,592.911194 
	C293.430878,592.724854 278.428680,592.716125 263.432068,592.916260 
	C259.829956,592.964355 259.022186,591.802063 259.046539,588.391663 
	C259.194244,567.727051 259.043365,547.060303 259.196930,526.395691 
	C259.221954,523.029785 258.544128,521.838257 254.902771,521.906616 
	C242.241165,522.144409 229.570999,522.099304 216.907242,521.927917 
	C213.724289,521.884827 212.649506,522.649170 212.709106,526.011047 
	C212.918747,537.837524 212.790375,549.669922 212.790253,562.000122 
z"/>
<path fill="#020201" opacity="1.000000" stroke="none" 
	d="
M334.587677,284.475769 
	C344.228271,297.549072 342.468109,311.741547 330.284912,321.339966 
	C319.277161,330.012329 304.279449,328.263855 295.091003,317.237061 
	C286.378784,306.781738 287.401947,291.669983 297.474426,282.035095 
	C306.961548,272.960144 322.033661,272.812775 331.899872,281.714569 
	C332.763153,282.493469 333.536865,283.371613 334.587677,284.475769 
z"/>
<path fill="#030201" opacity="1.000000" stroke="none" 
	d="
M277.061951,232.967926 
	C267.248718,243.653503 254.958847,245.110672 244.396072,237.112854 
	C234.376190,229.526093 234.373993,215.219269 244.391525,207.624741 
	C258.046082,197.272934 278.492065,204.824875 280.524048,220.970840 
	C281.071838,225.323364 279.786255,229.167313 277.061951,232.967926 
z"/>
<path fill="#030301" opacity="1.000000" stroke="none" 
	d="
M340.237640,233.367401 
	C331.952545,238.371567 324.145966,238.001724 316.604401,232.617035 
	C306.986115,225.749542 306.693909,213.863907 315.904419,206.393860 
	C327.487457,196.999634 346.131439,203.171783 348.342102,217.157425 
	C349.467377,224.276443 346.264618,229.343475 340.237640,233.367401 
z"/>
</svg>